<?xml version="1.0" encoding="utf-8"?>
<!-- Generator: Adobe Illustrator 25.4.1, SVG Export Plug-In . SVG Version: 6.00 Build 0)  -->
<svg version="1.1"
	 id="svg8" inkscape:version="0.92.2 5c3e80d, 2017-08-06" xmlns:cc="http://creativecommons.org/ns#" xmlns:dc="http://purl.org/dc/elements/1.1/" xmlns:inkscape="http://www.inkscape.org/namespaces/inkscape" xmlns:rdf="http://www.w3.org/1999/02/22-rdf-syntax-ns#" xmlns:sodipodi="http://sodipodi.sourceforge.net/DTD/sodipodi-0.dtd" xmlns:svg="http://www.w3.org/2000/svg"
	 xmlns="http://www.w3.org/2000/svg" xmlns:xlink="http://www.w3.org/1999/xlink" x="0px" y="0px" viewBox="0 0 595.3 841.9"
	 style="enable-background:new 0 0 595.3 841.9;" xml:space="preserve">
<style type="text/css">
	.st0{fill:#959595;}
	.st1{fill:#0C0C0C;}
</style>
<sodipodi:namedview  bordercolor="#666666" borderopacity="1.0" id="base" inkscape:current-layer="g4571" inkscape:cx="131.51462" inkscape:cy="561.25984" inkscape:document-units="mm" inkscape:guide-bbox="true" inkscape:pageopacity="0.0" inkscape:pageshadow="2" inkscape:snap-bbox="true" inkscape:snap-global="true" inkscape:window-height="1002" inkscape:window-maximized="1" inkscape:window-width="1680" inkscape:window-x="0" inkscape:window-y="0" inkscape:zoom="0.702883" pagecolor="#ffffff" showgrid="false" showguides="false">
	<sodipodi:guide  id="guide827" inkscape:locked="false" orientation="0,1" position="97.927688,284.63232"></sodipodi:guide>
	<sodipodi:guide  id="guide829" inkscape:locked="false" orientation="0,1" position="129.49049,225.10267"></sodipodi:guide>
	<sodipodi:guide  id="guide831" inkscape:locked="false" orientation="1,0" position="74.908745,243.54753"></sodipodi:guide>
	<sodipodi:guide  id="guide833" inkscape:locked="false" orientation="1,0" position="120.18576,170.03345"></sodipodi:guide>
	<sodipodi:guide  id="guide835" inkscape:locked="false" orientation="0,1" position="138.14829,249.94678"></sodipodi:guide>
	<sodipodi:guide  id="guide837" inkscape:locked="false" orientation="1,0" position="89.817725,187.21597"></sodipodi:guide>
	<sodipodi:guide  id="guide861" inkscape:locked="false" orientation="0,1" position="93.484006,277.89075"></sodipodi:guide>
	<sodipodi:guide  id="guide928" inkscape:locked="false" orientation="1,0" position="72.869174,181.64337"></sodipodi:guide>
	<sodipodi:guide  id="guide951" inkscape:locked="false" orientation="0,1" position="118.5001,147.63421"></sodipodi:guide>
	<sodipodi:guide  id="guide953" inkscape:locked="false" orientation="0,1" position="97.81875,163.40478"></sodipodi:guide>
</sodipodi:namedview>
<g id="layer1" inkscape:groupmode="layer" inkscape:label="Capa 1">
	<g id="g926">
		<g id="g900" transform="translate(5.0589371,106.13291)">
			<g id="g849">
				<g id="g853" transform="translate(0,-8.9958338)">
				</g>
			</g>
		</g>
		<g id="g949" transform="matrix(0.53954979,0,0,0.53954979,48.332687,66.705746)">
			<g id="g970" transform="matrix(3.0882368,0,0,3.0882368,-219.32131,-313.54211)" inkscape:groupmode="layer">
				<g id="g4571">
					<g id="g4592">
						<g id="g855">
							<path id="path855" inkscape:connector-curvature="0" class="st0" d="M292.8,213H147.6h-11.3v22.7h11.4h145.2h11.3V213H292.8z
								"/>
							<path id="path843" inkscape:connector-curvature="0" sodipodi:nodetypes="ccccsccccc" class="st0" d="M208.7,214.3v11.3
								v140.8v7c2.7,0.8,7.2,1.3,11.9,1.3c4,0,8.1-0.4,10.7-1.2v-7.1V225.6v-11.3H208.7z"/>
						</g>
						<path id="rect902" inkscape:connector-curvature="0" class="st1" d="M108.3,196.5v16.4h-10c-16.7,0-30.5,13.8-30.5,30.5v157.7
							c0,16.7,13.8,30.5,30.5,30.5H343c16.7,0,30.5-13.8,30.5-30.5V243.5c0-16.7-13.8-30.5-30.5-30.5h-33.6v22.7H343
							c4.6,0,7.9,3.3,7.9,7.9v157.7c0,4.6-3.3,7.9-7.9,7.9H98.2c-4.6,0-7.9-3.3-7.9-7.9V243.5c0-4.6,3.3-7.9,7.9-7.9h32.7v-39.1
							H108.3z"/>
						<g id="g851">
							<path id="path845" inkscape:connector-curvature="0" class="st0" d="M236.8,310.1v22.7h10.5h44.2v-22.7h-44.2H236.8z"/>
							<path id="circle4543" inkscape:connector-curvature="0" sodipodi:nodetypes="cccccc" class="st0" d="M236.8,240.2l-0.3,23.2
								c20.1,5.6,35.8,21.3,41.4,41.4l23.3,0.1C294.8,272.3,269.4,246.8,236.8,240.2L236.8,240.2z"/>
							<path id="circle4545" inkscape:connector-curvature="0" sodipodi:nodetypes="cssccsscc" class="st0" d="M203.4,240.4
								c-44,9.4-72.5,52.8-63.5,96.9c9,44.1,52.1,73,96.3,64.4c42.8-8.3,71.6-48.7,66-91.5l-23-0.1c5.9,32.3-15.1,63.1-47.3,69.3
								c-32.2,6.2-63.2-14.5-69.7-46.7c-6.2-30.6,11.9-60.2,41.3-69L203.4,240.4z"/>
						</g>
					</g>
				</g>
			</g>
		</g>
	</g>
</g>
</svg>
